<svg xmlns="http://www.w3.org/2000/svg" viewBox="0 0 410 404"><defs><linearGradient id="a" x1="60.749%" x2="32.828%" y1="7.652%" y2="84.763%"><stop offset="0%" stop-color="#41D1FF"/><stop offset="100%" stop-color="#BD34FE"/></linearGradient><linearGradient id="b" x1="83.228%" x2="20.722%" y1="0%" y2="82.441%"><stop offset="0%" stop-color="#FFEA83"/><stop offset="8.333%" stop-color="#FFDD35"/><stop offset="100%" stop-color="#FFA800"/></linearGradient></defs><path fill="url(#a)" d="M399.641 59.525L215.469 388.03c-5.833 10.379-20.838 10.549-26.909.308L9.532 59.525c-6.767-11.252 1.893-25.288 14.526-23.755l186.314 22.393a15 15 0 0 0 3.472 0l171.271-22.268c12.581-1.635 21.274 12.424 14.506 23.692Z"/><path fill="url(#b)" d="M292.965 1.574L156.801 25.165a7.5 7.5 0 0 0-6.169 8.673l26.628 201.046a7.5 7.5 0 0 0 13.167 4.09l35.835-45.607c2.709-3.445 8.086-2.15 8.79 2.106l10.582 65.581c.753 4.667 6.97 5.78 9.547 1.763l5.241-8.206 81.391-247.679c1.902-5.791-2.77-11.606-8.889-10.57Z"/></svg>

